<?xml version="1.0" encoding="UTF-8"?>
<svg width="400" height="40" version="1.1" xmlns="http://www.w3.org/2000/svg">
	<path d="m339.6 11.71s13.517-0.76855 13.517-0.76855c-0.2511-1.1725-0.5021-2.3448-1.635-3.9457-1.1327-1.6009-3.1472-3.6301-5.6592-4.8982-2.5121-1.2682-5.5215-1.7752-9.0069-1.9298-3.4853-0.15462-7.4463 0.0431-10.841 0.74096-3.3945 0.69782-6.2218 1.8956-8.2205 3.917-1.9988 2.0214-3.1685 4.866-3.1168 7.6192 0.052 2.7532 1.3246 5.4145 3.707 7.1918 2.3826 1.7773 5.8744 2.6706 8.7193 3.2863 2.8448 0.61569 5.0427 0.95386 7.2099 1.3337 2.1672 0.37987 4.3032 0.80135 5.4078 1.6204 1.1045 0.8191 1.1774 2.0355 0.6986 3.0949-0.4788 1.0595-1.5093 1.962-3.17 2.4086-1.6607 0.44665-3.9509 0.43728-5.7045 0.15939-1.7535-0.27789-2.9686-0.82404-3.7768-1.402-0.8083-0.57792-1.2088-1.1873-1.4189-1.6364-0.2101-0.44907-0.2297-0.73819-0.2493-1.0271l-13.192 0.34062c0.2916 2.1951 0.5835 4.3903 2.102 6.3857 1.5186 1.9954 4.2636 3.7909 7.7162 4.73 3.4524 0.93908 7.612 1.0217 11.399 0.9222 3.7867-0.0995 7.2002-0.381 10.401-1.5224 3.2006-1.1414 6.1878-3.1426 7.7575-6.164s1.7216-7.0626 0.3444-9.7921c-1.3773-2.7294-4.2839-4.1466-8.5083-5.2445-4.2244-1.0978-9.7656-1.876-12.842-2.7133-3.0761-0.83729-3.6853-1.7333-3.7855-2.6588-0.1003-0.92553 0.3087-1.8801 1.3078-2.5163s2.5886-0.95405 3.9755-1.0237c1.387-0.0696 2.5721 0.10898 3.5279 0.32295 0.9559 0.21398 1.683 0.4634 2.2164 0.845s0.8727 0.89477 1.027 1.3042c0.1544 0.40948 0.1236 0.7145 0.093 1.0198zm17.511-9.8225v36.845h13.406v-14.098h16.033v14.098h13.406v-36.845h-13.406v13.614h-16.033v-13.614zm-154.75 0v36.845h39.529v-8.0964h-26.537v-6.2777h24.187v-8.0964h-24.187v-6.2777h25.708v-8.0966zm-44.228 0v36.845h39.529v-8.0964h-26.537v-6.2777h24.187v-8.0964h-24.187v-6.2777h25.708v-8.0966zm104.83 0v36.845h32.171v-8.698h-18.764v-28.147zm-159.5 0v36.845h32.171v-8.698h-18.764v-28.147zm-34.797 0v36.845h32.171v-8.698h-18.764v-28.147zm227.91 1.3e-4h13.407v36.845h-13.407zm-157.93 0h13.407v36.845h-13.407zm106.72 0h13.407v36.845h-13.407zm-196.24 0h13.407v36.845h-13.407zm-49.162 0c10.193 2e-5 20.386 4e-5 27.488 0.0571 7.1021 0.057 11.115 0.17103 13.259 2.5948 2.1447 2.4238 2.4216 7.1568 1.304 9.9223s-3.63 3.5637-6.1422 4.3618c2.9775 0.43584 5.9552 0.8717 7.5118 3.7338s1.6925 8.1501-0.23681 11.25-6.7227 4.1947-8.8082 4.5596c-2.0856 0.36489-3.5486 0.36491-9.0929 0.36491s-15.414-2e-5 -25.283-3e-5v-36.845zm13.105 28.635h15.164c1.7732 0 3.2008-1.4276 3.2008-3.2008s-1.4276-3.2008-3.2008-3.2008h-15.164zm0-14.502h14.289c1.6462 0 2.9716-1.3253 2.9716-2.9716s-1.3253-2.9716-2.9716-2.9716h-14.289z"/>
</svg>
